<?xml version="1.0"?><svg width="640" height="480" xmlns="http://www.w3.org/2000/svg" xmlns:xlink="http://www.w3.org/1999/xlink">
 <defs>
  <linearGradient id="linearGradient4752">
   <stop stop-color=" rgb(255, 153, 51)" id="stop4754" offset="0"/>
   <stop stop-color=" rgb(204, 153, 0)" id="stop4756" offset="1"/>
  </linearGradient>
  <linearGradient gradientTransform="matrix(0.473822, 0, 0, 0.473822, 238.353, 507.049)" gradientUnits="userSpaceOnUse" y2="913.54004" x2="-438.85715" y1="506.02982" x1="-459.7551" id="linearGradient4758" xlink:href="#linearGradient4752"/>
 </defs>
 <metadata id="metadata4638">image/svg+xml</metadata>
 <g>
  <path fill=" rgb(0, 24, 0)" id="path4661" d="m190.230743,14.265503c-6.991058,6.629883 -55.06308,24.015259 -43.731415,64.827087c13.023819,8.140503 34.597748,14.390747 49.506134,7.661194c20.763031,-10.767395 36.083649,-14.329163 55.170807,-13.245667c-22.330017,-1.405945 -32.562775,2.838501 -47.398605,12.519348c10.607193,6.832703 18.617218,10.593872 32.53241,23.055359c-16.97998,-9.933594 -26.898819,-21.453186 -43.84346,-19.539734c-15.046509,10.300476 -39.68306,0.400757 -46.686417,-2.789307c0,0 -56.026375,4.852295 -63.649239,24.444519c-3.588531,9.223145 17.673592,25.091248 17.673592,25.091248c0,0 -0.756462,-0.248169 -1.998947,-0.700989c14.860023,7.380066 24.533615,15.853394 31.005814,24.417358c4.111771,5.440613 3.835709,13.7323 4.308853,21.759521c24.223007,-2.537964 46.887863,0.809937 61.256439,1.635559c0.321777,-0.068359 36.736282,-1.689453 45.546265,-4.322693c14.440063,-6.319397 15.610565,-40.451782 29.954529,-46.834106c3.106079,-1.381958 6.845428,-1.954651 10.971954,-1.913025c25.217743,0.254395 65.032257,23.336731 65.032257,23.336731c0,0 -53.721161,-30.013 -74.582764,-19.831787c-14.524811,7.088562 -13.515259,41.386963 -28.162872,48.425781c-11.07785,5.323608 -33.854721,6.550354 -40.630341,6.805359c8.152786,3.756775 17.813751,7.548462 25.068207,8.30957c15.709152,1.648132 34.034485,-27.351135 49.69223,-25.804749c24.110809,2.381165 54.9487,56.034424 54.9487,56.034424c0,0 -31.30603,-52.490295 -54.534119,-53.960693c-16.172455,-1.023926 -32.66861,29.180969 -48.922241,28.053711c-10.904739,-0.756348 -28.276611,-8.889038 -36.247482,-12.895142c-21.552689,-1.10321 -42.093903,-0.876282 -58.04335,5.388855l-1.243759,-0.686401c-1.783585,51.091309 -30.576454,118.567444 -30.576454,118.567444l-51.644318,-0.703247c30.01506,-40.185791 78.998146,-95.189514 66.495758,-145.08551c-8.519829,-29.124084 -94.690998,-47.144653 -93.372879,-77.428894c0.850031,-19.526428 33.9524,-48.13385 33.9524,-48.13385c0,0 -27.30562,30.938904 -26.1639,49.52124c0.86405,14.06189 24.42972,22.530518 46.598577,32.824829c-6.1362,4.129944 -1.320015,-3.234802 -4.871964,-9.098633c-9.231232,-15.239563 65.780472,-34.202454 65.780472,-34.202454c-2.407471,-49.772888 4.643967,-32.081909 29.001251,-66.251648l-23.351944,32.124146c-5.560989,7.649963 21.084366,-22.122192 45.159821,-31.374756z"/>
  <title>Layer 1</title>
 </g>
</svg>